<svg xmlns="http://www.w3.org/2000/svg" viewBox="0 0 128 128">
  <defs>
    <linearGradient id="bgGradient" x1="0%" y1="0%" x2="100%" y2="100%">
      <stop offset="0%" style="stop-color:#4F46E5;stop-opacity:1" /> <!-- Indigo-600 -->
      <stop offset="100%" style="stop-color:#9333EA;stop-opacity:1" /> <!-- Purple-600 -->
    </linearGradient>
  </defs>
  <!-- 背景容器 -->
  <rect x="0" y="0" width="128" height="128" fill="url(#bgGradient)" />
  
  <!-- 左括号 -->
  <path d="M42 38h-8c-4.4 0-8 3.6-8 8v36c0 4.4 3.6 8 8 8h8" stroke="white" stroke-width="10" stroke-linecap="round" fill="none" opacity="0.9"/>
  
  <!-- 右括号 -->
  <path d="M86 38h8c4.4 0 8 3.6 8 8v36c0 4.4-3.6 8-8 8h-8" stroke="white" stroke-width="10" stroke-linecap="round" fill="none" opacity="0.9"/>
  
  <!-- 中央 AI 星芒 -->
  <path d="M64 32c3 0 7 21 9 24s24 5 24 8c0 3-22 5-24 8s-6 24-9 24c-3 0-7-21-9-24s-24-5-24-8c0-3 22-5 24-8s6-24 9-24z" fill="white" />
</svg>